# xmcd
#
# Track frame offsets: 
#        150
#        16825
#        37200
#        54375
#        72312
#        94125
#        107987
#        126687
#        143262
#        160225
#
# Disc length: 2410 seconds
#
# Revision: 2
# Processed by: cddbd v1.5.2PL0 Copyright (c) Steve Scherf et al.
# Submitted via: ExactAudioCopy v0.99pb5
#
DISCID=8b09680a
DTITLE=譚詠麟 - 情心義膽
DYEAR=1996
DGENRE=Pop
TTITLE0=情在雪天
TTITLE1=網路情迷
TTITLE2=獨一無二
TTITLE3=門前說
TTITLE4=失戀通告
TTITLE5=讓我繼續忘記你
TTITLE6=創世記
TTITLE7=活得瀟洒
TTITLE8=夢遊蕩
TTITLE9=知道又如何
EXTD=
EXTT0=
EXTT1=
EXTT2=
EXTT3=
EXTT4=
EXTT5=
EXTT6=
EXTT7=
EXTT8=
EXTT9=
PLAYORDER=
